<mxfile host="app.diagrams.net" modified="2021-09-24T09:56:32.699Z" agent="5.0 (Windows NT 10.0; Win64; x64) AppleWebKit/537.36 (KHTML, like Gecko) Chrome/94.0.4606.54 Safari/537.36" etag="K7sm6cTgc56_T5H-pJgq" version="15.2.9" type="github">
  <diagram id="Ky9RUaLycCYsjsamAnfE" name="Page-1">
    <mxGraphModel dx="3004" dy="579" grid="1" gridSize="10" guides="1" tooltips="1" connect="1" arrows="1" fold="1" page="1" pageScale="1" pageWidth="850" pageHeight="1100" math="0" shadow="0">
      <root>
        <mxCell id="0" />
        <mxCell id="1" parent="0" />
        <mxCell id="1xneGXkla3T9GmBniWxz-1" value="User" style="rounded=0;whiteSpace=wrap;html=1;" vertex="1" parent="1">
          <mxGeometry x="40" y="40" width="120" height="60" as="geometry" />
        </mxCell>
        <mxCell id="1xneGXkla3T9GmBniWxz-2" value="" style="endArrow=classic;html=1;exitX=0.996;exitY=0.162;exitDx=0;exitDy=0;exitPerimeter=0;" edge="1" parent="1" source="1xneGXkla3T9GmBniWxz-1">
          <mxGeometry relative="1" as="geometry">
            <mxPoint x="170" y="50" as="sourcePoint" />
            <mxPoint x="320" y="50" as="targetPoint" />
          </mxGeometry>
        </mxCell>
        <mxCell id="1xneGXkla3T9GmBniWxz-3" value="Admin" style="edgeLabel;resizable=0;html=1;align=center;verticalAlign=middle;" connectable="0" vertex="1" parent="1xneGXkla3T9GmBniWxz-2">
          <mxGeometry relative="1" as="geometry" />
        </mxCell>
        <mxCell id="1xneGXkla3T9GmBniWxz-4" value="" style="endArrow=classic;html=1;exitX=1;exitY=0.5;exitDx=0;exitDy=0;" edge="1" parent="1" source="1xneGXkla3T9GmBniWxz-1">
          <mxGeometry relative="1" as="geometry">
            <mxPoint x="160" y="90" as="sourcePoint" />
            <mxPoint x="320" y="70" as="targetPoint" />
          </mxGeometry>
        </mxCell>
        <mxCell id="1xneGXkla3T9GmBniWxz-5" value="Event Manager" style="edgeLabel;resizable=0;html=1;align=center;verticalAlign=middle;" connectable="0" vertex="1" parent="1xneGXkla3T9GmBniWxz-4">
          <mxGeometry relative="1" as="geometry" />
        </mxCell>
        <mxCell id="1xneGXkla3T9GmBniWxz-8" value="" style="endArrow=classic;html=1;exitX=0.996;exitY=0.822;exitDx=0;exitDy=0;exitPerimeter=0;" edge="1" parent="1" source="1xneGXkla3T9GmBniWxz-1">
          <mxGeometry relative="1" as="geometry">
            <mxPoint x="170" y="90" as="sourcePoint" />
            <mxPoint x="320" y="90" as="targetPoint" />
          </mxGeometry>
        </mxCell>
        <mxCell id="1xneGXkla3T9GmBniWxz-9" value="Attendee" style="edgeLabel;resizable=0;html=1;align=center;verticalAlign=middle;" connectable="0" vertex="1" parent="1xneGXkla3T9GmBniWxz-8">
          <mxGeometry relative="1" as="geometry" />
        </mxCell>
        <mxCell id="1xneGXkla3T9GmBniWxz-14" value="Event" style="rounded=0;whiteSpace=wrap;html=1;" vertex="1" parent="1">
          <mxGeometry x="40" y="220" width="120" height="60" as="geometry" />
        </mxCell>
        <mxCell id="1xneGXkla3T9GmBniWxz-15" value="" style="endArrow=classic;html=1;exitX=0.996;exitY=0.162;exitDx=0;exitDy=0;exitPerimeter=0;" edge="1" source="1xneGXkla3T9GmBniWxz-14" parent="1">
          <mxGeometry relative="1" as="geometry">
            <mxPoint x="170" y="230" as="sourcePoint" />
            <mxPoint x="320" y="230" as="targetPoint" />
          </mxGeometry>
        </mxCell>
        <mxCell id="1xneGXkla3T9GmBniWxz-16" value="Online" style="edgeLabel;resizable=0;html=1;align=center;verticalAlign=middle;" connectable="0" vertex="1" parent="1xneGXkla3T9GmBniWxz-15">
          <mxGeometry relative="1" as="geometry" />
        </mxCell>
        <mxCell id="1xneGXkla3T9GmBniWxz-17" value="" style="endArrow=classic;html=1;exitX=1;exitY=0.5;exitDx=0;exitDy=0;" edge="1" source="1xneGXkla3T9GmBniWxz-14" parent="1">
          <mxGeometry relative="1" as="geometry">
            <mxPoint x="160" y="270" as="sourcePoint" />
            <mxPoint x="320" y="250" as="targetPoint" />
          </mxGeometry>
        </mxCell>
        <mxCell id="1xneGXkla3T9GmBniWxz-18" value="Physical" style="edgeLabel;resizable=0;html=1;align=center;verticalAlign=middle;" connectable="0" vertex="1" parent="1xneGXkla3T9GmBniWxz-17">
          <mxGeometry relative="1" as="geometry" />
        </mxCell>
        <mxCell id="1xneGXkla3T9GmBniWxz-22" value="fname" style="text;html=1;align=center;verticalAlign=middle;resizable=0;points=[];autosize=1;strokeColor=none;fillColor=none;" vertex="1" parent="1">
          <mxGeometry x="-50" y="20" width="50" height="20" as="geometry" />
        </mxCell>
        <mxCell id="1xneGXkla3T9GmBniWxz-23" value="lname" style="text;html=1;align=center;verticalAlign=middle;resizable=0;points=[];autosize=1;strokeColor=none;fillColor=none;" vertex="1" parent="1">
          <mxGeometry x="-50" y="40" width="50" height="20" as="geometry" />
        </mxCell>
        <mxCell id="1xneGXkla3T9GmBniWxz-24" value="email" style="text;html=1;align=center;verticalAlign=middle;resizable=0;points=[];autosize=1;strokeColor=none;fillColor=none;" vertex="1" parent="1">
          <mxGeometry x="-45" y="60" width="40" height="20" as="geometry" />
        </mxCell>
        <mxCell id="1xneGXkla3T9GmBniWxz-28" value="mobile" style="text;html=1;align=center;verticalAlign=middle;resizable=0;points=[];autosize=1;strokeColor=none;fillColor=none;" vertex="1" parent="1">
          <mxGeometry x="-50" y="80" width="50" height="20" as="geometry" />
        </mxCell>
        <mxCell id="1xneGXkla3T9GmBniWxz-29" value="NIC" style="text;html=1;align=center;verticalAlign=middle;resizable=0;points=[];autosize=1;strokeColor=none;fillColor=none;" vertex="1" parent="1">
          <mxGeometry x="-45" y="100" width="40" height="20" as="geometry" />
        </mxCell>
        <mxCell id="1xneGXkla3T9GmBniWxz-30" value="id" style="text;html=1;align=center;verticalAlign=middle;resizable=0;points=[];autosize=1;strokeColor=none;fillColor=none;" vertex="1" parent="1">
          <mxGeometry x="-35" width="20" height="20" as="geometry" />
        </mxCell>
        <mxCell id="1xneGXkla3T9GmBniWxz-31" value="attendees" style="text;html=1;align=center;verticalAlign=middle;resizable=0;points=[];autosize=1;strokeColor=none;fillColor=none;" vertex="1" parent="1">
          <mxGeometry x="-60" y="210" width="70" height="20" as="geometry" />
        </mxCell>
        <mxCell id="1xneGXkla3T9GmBniWxz-32" value="id" style="text;html=1;align=center;verticalAlign=middle;resizable=0;points=[];autosize=1;strokeColor=none;fillColor=none;" vertex="1" parent="1">
          <mxGeometry x="-35" y="190" width="20" height="20" as="geometry" />
        </mxCell>
        <mxCell id="1xneGXkla3T9GmBniWxz-33" value="date" style="text;html=1;align=center;verticalAlign=middle;resizable=0;points=[];autosize=1;strokeColor=none;fillColor=none;" vertex="1" parent="1">
          <mxGeometry x="-45" y="230" width="40" height="20" as="geometry" />
        </mxCell>
        <mxCell id="1xneGXkla3T9GmBniWxz-34" value="time" style="text;html=1;align=center;verticalAlign=middle;resizable=0;points=[];autosize=1;strokeColor=none;fillColor=none;" vertex="1" parent="1">
          <mxGeometry x="-45" y="250" width="40" height="20" as="geometry" />
        </mxCell>
        <mxCell id="1xneGXkla3T9GmBniWxz-35" value="EMid" style="text;html=1;align=center;verticalAlign=middle;resizable=0;points=[];autosize=1;strokeColor=none;fillColor=none;" vertex="1" parent="1">
          <mxGeometry x="-45" y="270" width="40" height="20" as="geometry" />
        </mxCell>
        <mxCell id="1xneGXkla3T9GmBniWxz-37" value="Feedback" style="rounded=0;whiteSpace=wrap;html=1;" vertex="1" parent="1">
          <mxGeometry x="40" y="340" width="120" height="60" as="geometry" />
        </mxCell>
        <mxCell id="1xneGXkla3T9GmBniWxz-38" value="Category" style="rounded=0;whiteSpace=wrap;html=1;" vertex="1" parent="1">
          <mxGeometry x="40" y="460" width="120" height="60" as="geometry" />
        </mxCell>
        <mxCell id="1xneGXkla3T9GmBniWxz-39" value="Ticket" style="rounded=0;whiteSpace=wrap;html=1;" vertex="1" parent="1">
          <mxGeometry x="40" y="580" width="120" height="60" as="geometry" />
        </mxCell>
        <mxCell id="1xneGXkla3T9GmBniWxz-41" value="tickets" style="text;html=1;align=center;verticalAlign=middle;resizable=0;points=[];autosize=1;strokeColor=none;fillColor=none;" vertex="1" parent="1">
          <mxGeometry x="-50" y="290" width="50" height="20" as="geometry" />
        </mxCell>
        <mxCell id="1xneGXkla3T9GmBniWxz-42" value="uid" style="text;html=1;align=center;verticalAlign=middle;resizable=0;points=[];autosize=1;strokeColor=none;fillColor=none;" vertex="1" parent="1">
          <mxGeometry x="-40" y="330" width="30" height="20" as="geometry" />
        </mxCell>
        <mxCell id="1xneGXkla3T9GmBniWxz-43" value="id" style="text;html=1;align=center;verticalAlign=middle;resizable=0;points=[];autosize=1;strokeColor=none;fillColor=none;" vertex="1" parent="1">
          <mxGeometry x="-35" y="350" width="20" height="20" as="geometry" />
        </mxCell>
        <mxCell id="1xneGXkla3T9GmBniWxz-44" value="rate" style="text;html=1;align=center;verticalAlign=middle;resizable=0;points=[];autosize=1;strokeColor=none;fillColor=none;" vertex="1" parent="1">
          <mxGeometry x="-45" y="370" width="40" height="20" as="geometry" />
        </mxCell>
        <mxCell id="1xneGXkla3T9GmBniWxz-45" value="description" style="text;html=1;align=center;verticalAlign=middle;resizable=0;points=[];autosize=1;strokeColor=none;fillColor=none;" vertex="1" parent="1">
          <mxGeometry x="-60" y="390" width="70" height="20" as="geometry" />
        </mxCell>
        <mxCell id="1xneGXkla3T9GmBniWxz-46" value="Eid" style="text;html=1;align=center;verticalAlign=middle;resizable=0;points=[];autosize=1;strokeColor=none;fillColor=none;" vertex="1" parent="1">
          <mxGeometry x="-45" y="410" width="30" height="20" as="geometry" />
        </mxCell>
        <mxCell id="1xneGXkla3T9GmBniWxz-47" value="id" style="text;html=1;align=center;verticalAlign=middle;resizable=0;points=[];autosize=1;strokeColor=none;fillColor=none;" vertex="1" parent="1">
          <mxGeometry x="-40" y="460" width="20" height="20" as="geometry" />
        </mxCell>
        <mxCell id="1xneGXkla3T9GmBniWxz-50" value="name" style="text;html=1;align=center;verticalAlign=middle;resizable=0;points=[];autosize=1;strokeColor=none;fillColor=none;" vertex="1" parent="1">
          <mxGeometry x="-55" y="480" width="50" height="20" as="geometry" />
        </mxCell>
        <mxCell id="1xneGXkla3T9GmBniWxz-51" value="description" style="text;html=1;align=center;verticalAlign=middle;resizable=0;points=[];autosize=1;strokeColor=none;fillColor=none;" vertex="1" parent="1">
          <mxGeometry x="-65" y="500" width="70" height="20" as="geometry" />
        </mxCell>
        <mxCell id="1xneGXkla3T9GmBniWxz-52" value="id" style="text;html=1;align=center;verticalAlign=middle;resizable=0;points=[];autosize=1;strokeColor=none;fillColor=none;" vertex="1" parent="1">
          <mxGeometry x="-40" y="570" width="20" height="20" as="geometry" />
        </mxCell>
        <mxCell id="1xneGXkla3T9GmBniWxz-53" value="Eid" style="text;html=1;align=center;verticalAlign=middle;resizable=0;points=[];autosize=1;strokeColor=none;fillColor=none;" vertex="1" parent="1">
          <mxGeometry x="-45" y="590" width="30" height="20" as="geometry" />
        </mxCell>
        <mxCell id="1xneGXkla3T9GmBniWxz-54" value="Uid" style="text;html=1;align=center;verticalAlign=middle;resizable=0;points=[];autosize=1;strokeColor=none;fillColor=none;" vertex="1" parent="1">
          <mxGeometry x="-45" y="610" width="30" height="20" as="geometry" />
        </mxCell>
        <mxCell id="1xneGXkla3T9GmBniWxz-55" value="expDate" style="text;html=1;align=center;verticalAlign=middle;resizable=0;points=[];autosize=1;strokeColor=none;fillColor=none;" vertex="1" parent="1">
          <mxGeometry x="-60" y="630" width="60" height="20" as="geometry" />
        </mxCell>
        <mxCell id="1xneGXkla3T9GmBniWxz-56" value="joinDate" style="text;html=1;align=center;verticalAlign=middle;resizable=0;points=[];autosize=1;strokeColor=none;fillColor=none;" vertex="1" parent="1">
          <mxGeometry x="-55" y="120" width="60" height="20" as="geometry" />
        </mxCell>
        <mxCell id="1xneGXkla3T9GmBniWxz-57" value="address" style="text;html=1;align=center;verticalAlign=middle;resizable=0;points=[];autosize=1;strokeColor=none;fillColor=none;" vertex="1" parent="1">
          <mxGeometry x="-55" y="140" width="60" height="20" as="geometry" />
        </mxCell>
        <mxCell id="1xneGXkla3T9GmBniWxz-58" value="username" style="text;html=1;align=center;verticalAlign=middle;resizable=0;points=[];autosize=1;strokeColor=none;fillColor=none;" vertex="1" parent="1">
          <mxGeometry x="-135" width="70" height="20" as="geometry" />
        </mxCell>
        <mxCell id="1xneGXkla3T9GmBniWxz-59" value="password" style="text;html=1;align=center;verticalAlign=middle;resizable=0;points=[];autosize=1;strokeColor=none;fillColor=none;" vertex="1" parent="1">
          <mxGeometry x="-135" y="20" width="70" height="20" as="geometry" />
        </mxCell>
        <mxCell id="1xneGXkla3T9GmBniWxz-60" value="seats" style="text;html=1;align=center;verticalAlign=middle;resizable=0;points=[];autosize=1;strokeColor=none;fillColor=none;" vertex="1" parent="1">
          <mxGeometry x="-105" y="190" width="40" height="20" as="geometry" />
        </mxCell>
        <mxCell id="1xneGXkla3T9GmBniWxz-61" value="status" style="text;html=1;align=center;verticalAlign=middle;resizable=0;points=[];autosize=1;strokeColor=none;fillColor=none;" vertex="1" parent="1">
          <mxGeometry x="-110" y="210" width="50" height="20" as="geometry" />
        </mxCell>
        <mxCell id="1xneGXkla3T9GmBniWxz-62" value="Announcement" style="rounded=0;whiteSpace=wrap;html=1;" vertex="1" parent="1">
          <mxGeometry x="40" y="690" width="120" height="60" as="geometry" />
        </mxCell>
        <mxCell id="1xneGXkla3T9GmBniWxz-63" value="Messages&lt;br&gt;for Admin" style="rounded=0;whiteSpace=wrap;html=1;" vertex="1" parent="1">
          <mxGeometry x="40" y="800" width="120" height="60" as="geometry" />
        </mxCell>
        <mxCell id="1xneGXkla3T9GmBniWxz-64" value="Attendee List" style="rounded=0;whiteSpace=wrap;html=1;" vertex="1" parent="1">
          <mxGeometry x="430" y="220" width="120" height="60" as="geometry" />
        </mxCell>
        <mxCell id="1xneGXkla3T9GmBniWxz-65" value="id" style="text;html=1;align=center;verticalAlign=middle;resizable=0;points=[];autosize=1;strokeColor=none;fillColor=none;" vertex="1" parent="1">
          <mxGeometry x="385" y="225" width="20" height="20" as="geometry" />
        </mxCell>
        <mxCell id="1xneGXkla3T9GmBniWxz-66" value="Eid" style="text;html=1;align=center;verticalAlign=middle;resizable=0;points=[];autosize=1;strokeColor=none;fillColor=none;" vertex="1" parent="1">
          <mxGeometry x="380" y="255" width="30" height="20" as="geometry" />
        </mxCell>
        <mxCell id="1xneGXkla3T9GmBniWxz-67" value="User" style="swimlane;childLayout=stackLayout;horizontal=1;startSize=30;horizontalStack=0;rounded=1;fontSize=14;fontStyle=0;strokeWidth=2;resizeParent=0;resizeLast=1;shadow=0;dashed=0;align=center;" vertex="1" parent="1">
          <mxGeometry x="-520" y="80" width="160" height="120" as="geometry" />
        </mxCell>
        <mxCell id="1xneGXkla3T9GmBniWxz-68" value="Create&#xa;Update&#xa;Delete&#xa;Read" style="align=left;strokeColor=none;fillColor=none;spacingLeft=4;fontSize=12;verticalAlign=top;resizable=0;rotatable=0;part=1;" vertex="1" parent="1xneGXkla3T9GmBniWxz-67">
          <mxGeometry y="30" width="160" height="90" as="geometry" />
        </mxCell>
        <mxCell id="1xneGXkla3T9GmBniWxz-69" value="&lt;font style=&quot;font-size: 24px&quot;&gt;CRUD&lt;/font&gt;" style="text;html=1;align=center;verticalAlign=middle;resizable=0;points=[];autosize=1;strokeColor=none;fillColor=none;" vertex="1" parent="1">
          <mxGeometry x="-600" y="10" width="80" height="20" as="geometry" />
        </mxCell>
        <mxCell id="1xneGXkla3T9GmBniWxz-70" value="Event" style="swimlane;childLayout=stackLayout;horizontal=1;startSize=30;horizontalStack=0;rounded=1;fontSize=14;fontStyle=0;strokeWidth=2;resizeParent=0;resizeLast=1;shadow=0;dashed=0;align=center;" vertex="1" parent="1">
          <mxGeometry x="-760" y="80" width="160" height="120" as="geometry" />
        </mxCell>
        <mxCell id="1xneGXkla3T9GmBniWxz-71" value="Create&#xa;Update&#xa;Delete&#xa;Read" style="align=left;strokeColor=none;fillColor=none;spacingLeft=4;fontSize=12;verticalAlign=top;resizable=0;rotatable=0;part=1;" vertex="1" parent="1xneGXkla3T9GmBniWxz-70">
          <mxGeometry y="30" width="160" height="90" as="geometry" />
        </mxCell>
        <mxCell id="1xneGXkla3T9GmBniWxz-72" value="Feedback" style="swimlane;childLayout=stackLayout;horizontal=1;startSize=30;horizontalStack=0;rounded=1;fontSize=14;fontStyle=0;strokeWidth=2;resizeParent=0;resizeLast=1;shadow=0;dashed=0;align=center;" vertex="1" parent="1">
          <mxGeometry x="-520" y="400" width="160" height="120" as="geometry" />
        </mxCell>
        <mxCell id="1xneGXkla3T9GmBniWxz-73" value="Create&#xa;Update&#xa;Delete&#xa;Read" style="align=left;strokeColor=none;fillColor=none;spacingLeft=4;fontSize=12;verticalAlign=top;resizable=0;rotatable=0;part=1;" vertex="1" parent="1xneGXkla3T9GmBniWxz-72">
          <mxGeometry y="30" width="160" height="90" as="geometry" />
        </mxCell>
        <mxCell id="1xneGXkla3T9GmBniWxz-74" value="Category" style="swimlane;childLayout=stackLayout;horizontal=1;startSize=30;horizontalStack=0;rounded=1;fontSize=14;fontStyle=0;strokeWidth=2;resizeParent=0;resizeLast=1;shadow=0;dashed=0;align=center;" vertex="1" parent="1">
          <mxGeometry x="-520" y="560" width="160" height="120" as="geometry" />
        </mxCell>
        <mxCell id="1xneGXkla3T9GmBniWxz-75" value="Create&#xa;Update&#xa;Delete&#xa;Read" style="align=left;strokeColor=none;fillColor=none;spacingLeft=4;fontSize=12;verticalAlign=top;resizable=0;rotatable=0;part=1;" vertex="1" parent="1xneGXkla3T9GmBniWxz-74">
          <mxGeometry y="30" width="160" height="90" as="geometry" />
        </mxCell>
        <mxCell id="1xneGXkla3T9GmBniWxz-76" value="Announcement" style="swimlane;childLayout=stackLayout;horizontal=1;startSize=30;horizontalStack=0;rounded=1;fontSize=14;fontStyle=0;strokeWidth=2;resizeParent=0;resizeLast=1;shadow=0;dashed=0;align=center;" vertex="1" parent="1">
          <mxGeometry x="-760" y="240" width="160" height="120" as="geometry" />
        </mxCell>
        <mxCell id="1xneGXkla3T9GmBniWxz-77" value="Create&#xa;Update&#xa;Delete&#xa;Read" style="align=left;strokeColor=none;fillColor=none;spacingLeft=4;fontSize=12;verticalAlign=top;resizable=0;rotatable=0;part=1;" vertex="1" parent="1xneGXkla3T9GmBniWxz-76">
          <mxGeometry y="30" width="160" height="90" as="geometry" />
        </mxCell>
        <mxCell id="1xneGXkla3T9GmBniWxz-78" value="Ticket" style="swimlane;childLayout=stackLayout;horizontal=1;startSize=30;horizontalStack=0;rounded=1;fontSize=14;fontStyle=0;strokeWidth=2;resizeParent=0;resizeLast=1;shadow=0;dashed=0;align=center;" vertex="1" parent="1">
          <mxGeometry x="-760" y="400" width="160" height="120" as="geometry" />
        </mxCell>
        <mxCell id="1xneGXkla3T9GmBniWxz-79" value="Create&#xa;Update&#xa;Delete&#xa;Read" style="align=left;strokeColor=none;fillColor=none;spacingLeft=4;fontSize=12;verticalAlign=top;resizable=0;rotatable=0;part=1;" vertex="1" parent="1xneGXkla3T9GmBniWxz-78">
          <mxGeometry y="30" width="160" height="90" as="geometry" />
        </mxCell>
        <mxCell id="1xneGXkla3T9GmBniWxz-80" value="Stories" style="swimlane;childLayout=stackLayout;horizontal=1;startSize=30;horizontalStack=0;rounded=1;fontSize=14;fontStyle=0;strokeWidth=2;resizeParent=0;resizeLast=1;shadow=0;dashed=0;align=center;" vertex="1" parent="1">
          <mxGeometry x="-520" y="245" width="160" height="120" as="geometry" />
        </mxCell>
        <mxCell id="1xneGXkla3T9GmBniWxz-81" value="Create&#xa;Update&#xa;Delete&#xa;Read" style="align=left;strokeColor=none;fillColor=none;spacingLeft=4;fontSize=12;verticalAlign=top;resizable=0;rotatable=0;part=1;" vertex="1" parent="1xneGXkla3T9GmBniWxz-80">
          <mxGeometry y="30" width="160" height="90" as="geometry" />
        </mxCell>
        <mxCell id="1xneGXkla3T9GmBniWxz-82" value="Story" style="rounded=0;whiteSpace=wrap;html=1;" vertex="1" parent="1">
          <mxGeometry x="40" y="930" width="120" height="60" as="geometry" />
        </mxCell>
        <mxCell id="1xneGXkla3T9GmBniWxz-83" value="id" style="text;html=1;align=center;verticalAlign=middle;resizable=0;points=[];autosize=1;strokeColor=none;fillColor=none;" vertex="1" parent="1">
          <mxGeometry x="-40" y="680" width="20" height="20" as="geometry" />
        </mxCell>
        <mxCell id="1xneGXkla3T9GmBniWxz-86" value="title" style="text;html=1;align=center;verticalAlign=middle;resizable=0;points=[];autosize=1;strokeColor=none;fillColor=none;" vertex="1" parent="1">
          <mxGeometry x="-45" y="700" width="30" height="20" as="geometry" />
        </mxCell>
        <mxCell id="1xneGXkla3T9GmBniWxz-87" value="description" style="text;html=1;align=center;verticalAlign=middle;resizable=0;points=[];autosize=1;strokeColor=none;fillColor=none;" vertex="1" parent="1">
          <mxGeometry x="-65" y="720" width="70" height="20" as="geometry" />
        </mxCell>
        <mxCell id="1xneGXkla3T9GmBniWxz-88" value="date" style="text;html=1;align=center;verticalAlign=middle;resizable=0;points=[];autosize=1;strokeColor=none;fillColor=none;" vertex="1" parent="1">
          <mxGeometry x="-50" y="740" width="40" height="20" as="geometry" />
        </mxCell>
        <mxCell id="1xneGXkla3T9GmBniWxz-89" value="id" style="text;html=1;align=center;verticalAlign=middle;resizable=0;points=[];autosize=1;strokeColor=none;fillColor=none;" vertex="1" parent="1">
          <mxGeometry x="-35" y="780" width="20" height="20" as="geometry" />
        </mxCell>
        <mxCell id="1xneGXkla3T9GmBniWxz-90" value="Uid" style="text;html=1;align=center;verticalAlign=middle;resizable=0;points=[];autosize=1;strokeColor=none;fillColor=none;" vertex="1" parent="1">
          <mxGeometry x="-40" y="800" width="30" height="20" as="geometry" />
        </mxCell>
        <mxCell id="1xneGXkla3T9GmBniWxz-91" value="email" style="text;html=1;align=center;verticalAlign=middle;resizable=0;points=[];autosize=1;strokeColor=none;fillColor=none;" vertex="1" parent="1">
          <mxGeometry x="-45" y="820" width="40" height="20" as="geometry" />
        </mxCell>
        <mxCell id="1xneGXkla3T9GmBniWxz-92" value="name" style="text;html=1;align=center;verticalAlign=middle;resizable=0;points=[];autosize=1;strokeColor=none;fillColor=none;" vertex="1" parent="1">
          <mxGeometry x="-50" y="840" width="50" height="20" as="geometry" />
        </mxCell>
        <mxCell id="1xneGXkla3T9GmBniWxz-94" value="message" style="text;html=1;align=center;verticalAlign=middle;resizable=0;points=[];autosize=1;strokeColor=none;fillColor=none;" vertex="1" parent="1">
          <mxGeometry x="-55" y="860" width="60" height="20" as="geometry" />
        </mxCell>
        <mxCell id="1xneGXkla3T9GmBniWxz-95" value="Uid" style="text;html=1;align=center;verticalAlign=middle;resizable=0;points=[];autosize=1;strokeColor=none;fillColor=none;" vertex="1" parent="1">
          <mxGeometry x="-40" y="920" width="30" height="20" as="geometry" />
        </mxCell>
        <mxCell id="1xneGXkla3T9GmBniWxz-96" value="id" style="text;html=1;align=center;verticalAlign=middle;resizable=0;points=[];autosize=1;strokeColor=none;fillColor=none;" vertex="1" parent="1">
          <mxGeometry x="-35" y="900" width="20" height="20" as="geometry" />
        </mxCell>
        <mxCell id="1xneGXkla3T9GmBniWxz-97" value="Eid" style="text;html=1;align=center;verticalAlign=middle;resizable=0;points=[];autosize=1;strokeColor=none;fillColor=none;" vertex="1" parent="1">
          <mxGeometry x="-40" y="940" width="30" height="20" as="geometry" />
        </mxCell>
        <mxCell id="1xneGXkla3T9GmBniWxz-98" value="title" style="text;html=1;align=center;verticalAlign=middle;resizable=0;points=[];autosize=1;strokeColor=none;fillColor=none;" vertex="1" parent="1">
          <mxGeometry x="-40" y="960" width="30" height="20" as="geometry" />
        </mxCell>
        <mxCell id="1xneGXkla3T9GmBniWxz-99" value="description" style="text;html=1;align=center;verticalAlign=middle;resizable=0;points=[];autosize=1;strokeColor=none;fillColor=none;" vertex="1" parent="1">
          <mxGeometry x="-55" y="980" width="70" height="20" as="geometry" />
        </mxCell>
        <mxCell id="1xneGXkla3T9GmBniWxz-103" value="Message" style="swimlane;childLayout=stackLayout;horizontal=1;startSize=30;horizontalStack=0;rounded=1;fontSize=14;fontStyle=0;strokeWidth=2;resizeParent=0;resizeLast=1;shadow=0;dashed=0;align=center;" vertex="1" parent="1">
          <mxGeometry x="-760" y="560" width="160" height="120" as="geometry" />
        </mxCell>
        <mxCell id="1xneGXkla3T9GmBniWxz-104" value="Create&#xa;Update&#xa;Delete&#xa;Read" style="align=left;strokeColor=none;fillColor=none;spacingLeft=4;fontSize=12;verticalAlign=top;resizable=0;rotatable=0;part=1;" vertex="1" parent="1xneGXkla3T9GmBniWxz-103">
          <mxGeometry y="30" width="160" height="90" as="geometry" />
        </mxCell>
        <mxCell id="1xneGXkla3T9GmBniWxz-105" value="&lt;font style=&quot;font-size: 36px&quot;&gt;Thushara&lt;/font&gt;" style="text;html=1;align=center;verticalAlign=middle;resizable=0;points=[];autosize=1;strokeColor=none;fillColor=none;" vertex="1" parent="1">
          <mxGeometry x="-990" y="125" width="170" height="30" as="geometry" />
        </mxCell>
        <mxCell id="1xneGXkla3T9GmBniWxz-106" value="&lt;font style=&quot;font-size: 36px&quot;&gt;Gaween&lt;/font&gt;" style="text;html=1;align=center;verticalAlign=middle;resizable=0;points=[];autosize=1;strokeColor=none;fillColor=none;" vertex="1" parent="1">
          <mxGeometry x="-970" y="600" width="150" height="30" as="geometry" />
        </mxCell>
        <mxCell id="1xneGXkla3T9GmBniWxz-107" value="&lt;font style=&quot;font-size: 36px&quot;&gt;Niki&lt;/font&gt;" style="text;html=1;align=center;verticalAlign=middle;resizable=0;points=[];autosize=1;strokeColor=none;fillColor=none;" vertex="1" parent="1">
          <mxGeometry x="-945" y="290" width="80" height="30" as="geometry" />
        </mxCell>
        <mxCell id="1xneGXkla3T9GmBniWxz-108" value="&lt;font style=&quot;font-size: 36px&quot;&gt;dilki&lt;/font&gt;" style="text;html=1;align=center;verticalAlign=middle;resizable=0;points=[];autosize=1;strokeColor=none;fillColor=none;" vertex="1" parent="1">
          <mxGeometry x="-945" y="455" width="80" height="30" as="geometry" />
        </mxCell>
      </root>
    </mxGraphModel>
  </diagram>
</mxfile>
